<svg xmlns="http://www.w3.org/2000/svg" width="990" height="200" viewBox="0 0 990 200">
<rect width="100%" height="100%" rx="12" fill="#0d1117"/>

<rect x="1" y="1" width="988" height="198" rx="12" fill="#161b22" stroke="#30363d"/>
<text x="24" y="34" fill="#58a6ff" font-family="Segoe UI,Arial,sans-serif" font-size="18" font-weight="700">Contribution Activity</text>
<text x="24" y="52" fill="#8b949e" font-family="Segoe UI,Arial,sans-serif" font-size="11">Last 365 days</text>
<rect x="24" y="70" width="11" height="11" rx="2" fill="#0d1117"/><rect x="24" y="84" width="11" height="11" rx="2" fill="#0d1117"/><rect x="24" y="98" width="11" height="11" rx="2" fill="#0d1117"/><rect x="24" y="112" width="11" height="11" rx="2" fill="#0d1117"/><rect x="24" y="126" width="11" height="11" rx="2" fill="#0d1117"/><rect x="24" y="140" width="11" height="11" rx="2" fill="#0d1117"/><rect x="24" y="154" width="11" height="11" rx="2" fill="#0d1117"/><rect x="38" y="70" width="11" height="11" rx="2" fill="#0d1117"/><rect x="38" y="84" width="11" height="11" rx="2" fill="#0d1117"/><rect x="38" y="98" width="11" height="11" rx="2" fill="#0d1117"/><rect x="38" y="112" width="11" height="11" rx="2" fill="#0d1117"/><rect x="38" y="126" width="11" height="11" rx="2" fill="#0d1117"/><rect x="38" y="140" width="11" height="11" rx="2" fill="#0d1117"/><rect x="38" y="154" width="11" height="11" rx="2" fill="#0d1117"/><rect x="52" y="70" width="11" height="11" rx="2" fill="#0d1117"/><rect x="52" y="84" width="11" height="11" rx="2" fill="#0d1117"/><rect x="52" y="98" width="11" height="11" rx="2" fill="#0d1117"/><rect x="52" y="112" width="11" height="11" rx="2" fill="#0d1117"/><rect x="52" y="126" width="11" height="11" rx="2" fill="#0d1117"/><rect x="52" y="140" width="11" height="11" rx="2" fill="#0d1117"/><rect x="52" y="154" width="11" height="11" rx="2" fill="#0d1117"/><rect x="66" y="70" width="11" height="11" rx="2" fill="#0d1117"/><rect x="66" y="84" width="11" height="11" rx="2" fill="#0d1117"/><rect x="66" y="98" width="11" height="11" rx="2" fill="#0d1117"/><rect x="66" y="112" width="11" height="11" rx="2" fill="#0d1117"/><rect x="66" y="126" width="11" height="11" rx="2" fill="#0d1117"/><rect x="66" y="140" width="11" height="11" rx="2" fill="#0d1117"/><rect x="66" y="154" width="11" height="11" rx="2" fill="#0d1117"/><rect x="80" y="70" width="11" height="11" rx="2" fill="#0d1117"/><rect x="80" y="84" width="11" height="11" rx="2" fill="#0d1117"/><rect x="80" y="98" width="11" height="11" rx="2" fill="#0d1117"/><rect x="80" y="112" width="11" height="11" rx="2" fill="#0d1117"/><rect x="80" y="126" width="11" height="11" rx="2" fill="#0d1117"/><rect x="80" y="140" width="11" height="11" rx="2" fill="#0d1117"/><rect x="80" y="154" width="11" height="11" rx="2" fill="#0d1117"/><rect x="94" y="70" width="11" height="11" rx="2" fill="#0d1117"/><rect x="94" y="84" width="11" height="11" rx="2" fill="#0d1117"/><rect x="94" y="98" width="11" height="11" rx="2" fill="#0d1117"/><rect x="94" y="112" width="11" height="11" rx="2" fill="#0d1117"/><rect x="94" y="126" width="11" height="11" rx="2" fill="#0d1117"/><rect x="94" y="140" width="11" height="11" rx="2" fill="#0d1117"/><rect x="94" y="154" width="11" height="11" rx="2" fill="#0d1117"/><rect x="108" y="70" width="11" height="11" rx="2" fill="#0e4429"/><rect x="108" y="84" width="11" height="11" rx="2" fill="#0d1117"/><rect x="108" y="98" width="11" height="11" rx="2" fill="#0d1117"/><rect x="108" y="112" width="11" height="11" rx="2" fill="#0d1117"/><rect x="108" y="126" width="11" height="11" rx="2" fill="#0d1117"/><rect x="108" y="140" width="11" height="11" rx="2" fill="#0d1117"/><rect x="108" y="154" width="11" height="11" rx="2" fill="#0d1117"/><rect x="122" y="70" width="11" height="11" rx="2" fill="#0d1117"/><rect x="122" y="84" width="11" height="11" rx="2" fill="#0d1117"/><rect x="122" y="98" width="11" height="11" rx="2" fill="#0d1117"/><rect x="122" y="112" width="11" height="11" rx="2" fill="#0d1117"/><rect x="122" y="126" width="11" height="11" rx="2" fill="#0d1117"/><rect x="122" y="140" width="11" height="11" rx="2" fill="#0d1117"/><rect x="122" y="154" width="11" height="11" rx="2" fill="#0d1117"/><rect x="136" y="70" width="11" height="11" rx="2" fill="#0d1117"/><rect x="136" y="84" width="11" height="11" rx="2" fill="#0d1117"/><rect x="136" y="98" width="11" height="11" rx="2" fill="#0d1117"/><rect x="136" y="112" width="11" height="11" rx="2" fill="#0d1117"/><rect x="136" y="126" width="11" height="11" rx="2" fill="#0d1117"/><rect x="136" y="140" width="11" height="11" rx="2" fill="#0d1117"/><rect x="136" y="154" width="11" height="11" rx="2" fill="#0d1117"/><rect x="150" y="70" width="11" height="11" rx="2" fill="#0d1117"/><rect x="150" y="84" width="11" height="11" rx="2" fill="#0d1117"/><rect x="150" y="98" width="11" height="11" rx="2" fill="#0d1117"/><rect x="150" y="112" width="11" height="11" rx="2" fill="#0d1117"/><rect x="150" y="126" width="11" height="11" rx="2" fill="#0d1117"/><rect x="150" y="140" width="11" height="11" rx="2" fill="#0d1117"/><rect x="150" y="154" width="11" height="11" rx="2" fill="#0d1117"/><rect x="164" y="70" width="11" height="11" rx="2" fill="#0d1117"/><rect x="164" y="84" width="11" height="11" rx="2" fill="#0d1117"/><rect x="164" y="98" width="11" height="11" rx="2" fill="#0d1117"/><rect x="164" y="112" width="11" height="11" rx="2" fill="#0d1117"/><rect x="164" y="126" width="11" height="11" rx="2" fill="#0d1117"/><rect x="164" y="140" width="11" height="11" rx="2" fill="#0d1117"/><rect x="164" y="154" width="11" height="11" rx="2" fill="#0d1117"/><rect x="178" y="70" width="11" height="11" rx="2" fill="#0d1117"/><rect x="178" y="84" width="11" height="11" rx="2" fill="#0d1117"/><rect x="178" y="98" width="11" height="11" rx="2" fill="#0d1117"/><rect x="178" y="112" width="11" height="11" rx="2" fill="#0d1117"/><rect x="178" y="126" width="11" height="11" rx="2" fill="#0d1117"/><rect x="178" y="140" width="11" height="11" rx="2" fill="#0d1117"/><rect x="178" y="154" width="11" height="11" rx="2" fill="#0d1117"/><rect x="192" y="70" width="11" height="11" rx="2" fill="#0d1117"/><rect x="192" y="84" width="11" height="11" rx="2" fill="#0d1117"/><rect x="192" y="98" width="11" height="11" rx="2" fill="#0d1117"/><rect x="192" y="112" width="11" height="11" rx="2" fill="#0d1117"/><rect x="192" y="126" width="11" height="11" rx="2" fill="#0d1117"/><rect x="192" y="140" width="11" height="11" rx="2" fill="#0d1117"/><rect x="192" y="154" width="11" height="11" rx="2" fill="#0d1117"/><rect x="206" y="70" width="11" height="11" rx="2" fill="#0d1117"/><rect x="206" y="84" width="11" height="11" rx="2" fill="#0d1117"/><rect x="206" y="98" width="11" height="11" rx="2" fill="#0d1117"/><rect x="206" y="112" width="11" height="11" rx="2" fill="#0d1117"/><rect x="206" y="126" width="11" height="11" rx="2" fill="#0d1117"/><rect x="206" y="140" width="11" height="11" rx="2" fill="#0d1117"/><rect x="206" y="154" width="11" height="11" rx="2" fill="#0d1117"/><rect x="220" y="70" width="11" height="11" rx="2" fill="#0d1117"/><rect x="220" y="84" width="11" height="11" rx="2" fill="#0d1117"/><rect x="220" y="98" width="11" height="11" rx="2" fill="#0d1117"/><rect x="220" y="112" width="11" height="11" rx="2" fill="#0d1117"/><rect x="220" y="126" width="11" height="11" rx="2" fill="#0d1117"/><rect x="220" y="140" width="11" height="11" rx="2" fill="#0d1117"/><rect x="220" y="154" width="11" height="11" rx="2" fill="#0d1117"/><rect x="234" y="70" width="11" height="11" rx="2" fill="#0d1117"/><rect x="234" y="84" width="11" height="11" rx="2" fill="#0d1117"/><rect x="234" y="98" width="11" height="11" rx="2" fill="#0d1117"/><rect x="234" y="112" width="11" height="11" rx="2" fill="#0d1117"/><rect x="234" y="126" width="11" height="11" rx="2" fill="#0d1117"/><rect x="234" y="140" width="11" height="11" rx="2" fill="#0d1117"/><rect x="234" y="154" width="11" height="11" rx="2" fill="#0d1117"/><rect x="248" y="70" width="11" height="11" rx="2" fill="#0d1117"/><rect x="248" y="84" width="11" height="11" rx="2" fill="#0d1117"/><rect x="248" y="98" width="11" height="11" rx="2" fill="#0d1117"/><rect x="248" y="112" width="11" height="11" rx="2" fill="#0d1117"/><rect x="248" y="126" width="11" height="11" rx="2" fill="#0d1117"/><rect x="248" y="140" width="11" height="11" rx="2" fill="#0d1117"/><rect x="248" y="154" width="11" height="11" rx="2" fill="#0d1117"/><rect x="262" y="70" width="11" height="11" rx="2" fill="#0d1117"/><rect x="262" y="84" width="11" height="11" rx="2" fill="#0d1117"/><rect x="262" y="98" width="11" height="11" rx="2" fill="#0d1117"/><rect x="262" y="112" width="11" height="11" rx="2" fill="#0d1117"/><rect x="262" y="126" width="11" height="11" rx="2" fill="#0d1117"/><rect x="262" y="140" width="11" height="11" rx="2" fill="#0d1117"/><rect x="262" y="154" width="11" height="11" rx="2" fill="#0d1117"/><rect x="276" y="70" width="11" height="11" rx="2" fill="#0d1117"/><rect x="276" y="84" width="11" height="11" rx="2" fill="#0d1117"/><rect x="276" y="98" width="11" height="11" rx="2" fill="#0d1117"/><rect x="276" y="112" width="11" height="11" rx="2" fill="#0d1117"/><rect x="276" y="126" width="11" height="11" rx="2" fill="#006d32"/><rect x="276" y="140" width="11" height="11" rx="2" fill="#0d1117"/><rect x="276" y="154" width="11" height="11" rx="2" fill="#0d1117"/><rect x="290" y="70" width="11" height="11" rx="2" fill="#0d1117"/><rect x="290" y="84" width="11" height="11" rx="2" fill="#0d1117"/><rect x="290" y="98" width="11" height="11" rx="2" fill="#0d1117"/><rect x="290" y="112" width="11" height="11" rx="2" fill="#0d1117"/><rect x="290" y="126" width="11" height="11" rx="2" fill="#0d1117"/><rect x="290" y="140" width="11" height="11" rx="2" fill="#0d1117"/><rect x="290" y="154" width="11" height="11" rx="2" fill="#0d1117"/><rect x="304" y="70" width="11" height="11" rx="2" fill="#0d1117"/><rect x="304" y="84" width="11" height="11" rx="2" fill="#0d1117"/><rect x="304" y="98" width="11" height="11" rx="2" fill="#0d1117"/><rect x="304" y="112" width="11" height="11" rx="2" fill="#0d1117"/><rect x="304" y="126" width="11" height="11" rx="2" fill="#0d1117"/><rect x="304" y="140" width="11" height="11" rx="2" fill="#0d1117"/><rect x="304" y="154" width="11" height="11" rx="2" fill="#0d1117"/><rect x="318" y="70" width="11" height="11" rx="2" fill="#0d1117"/><rect x="318" y="84" width="11" height="11" rx="2" fill="#0d1117"/><rect x="318" y="98" width="11" height="11" rx="2" fill="#0d1117"/><rect x="318" y="112" width="11" height="11" rx="2" fill="#0d1117"/><rect x="318" y="126" width="11" height="11" rx="2" fill="#0d1117"/><rect x="318" y="140" width="11" height="11" rx="2" fill="#0d1117"/><rect x="318" y="154" width="11" height="11" rx="2" fill="#0e4429"/><rect x="332" y="70" width="11" height="11" rx="2" fill="#0d1117"/><rect x="332" y="84" width="11" height="11" rx="2" fill="#0d1117"/><rect x="332" y="98" width="11" height="11" rx="2" fill="#0d1117"/><rect x="332" y="112" width="11" height="11" rx="2" fill="#0d1117"/><rect x="332" y="126" width="11" height="11" rx="2" fill="#0d1117"/><rect x="332" y="140" width="11" height="11" rx="2" fill="#0d1117"/><rect x="332" y="154" width="11" height="11" rx="2" fill="#0d1117"/><rect x="346" y="70" width="11" height="11" rx="2" fill="#0d1117"/><rect x="346" y="84" width="11" height="11" rx="2" fill="#0d1117"/><rect x="346" y="98" width="11" height="11" rx="2" fill="#0d1117"/><rect x="346" y="112" width="11" height="11" rx="2" fill="#0d1117"/><rect x="346" y="126" width="11" height="11" rx="2" fill="#0d1117"/><rect x="346" y="140" width="11" height="11" rx="2" fill="#0d1117"/><rect x="346" y="154" width="11" height="11" rx="2" fill="#0d1117"/><rect x="360" y="70" width="11" height="11" rx="2" fill="#0d1117"/><rect x="360" y="84" width="11" height="11" rx="2" fill="#0d1117"/><rect x="360" y="98" width="11" height="11" rx="2" fill="#0d1117"/><rect x="360" y="112" width="11" height="11" rx="2" fill="#0d1117"/><rect x="360" y="126" width="11" height="11" rx="2" fill="#0d1117"/><rect x="360" y="140" width="11" height="11" rx="2" fill="#0d1117"/><rect x="360" y="154" width="11" height="11" rx="2" fill="#0d1117"/><rect x="374" y="70" width="11" height="11" rx="2" fill="#0d1117"/><rect x="374" y="84" width="11" height="11" rx="2" fill="#0d1117"/><rect x="374" y="98" width="11" height="11" rx="2" fill="#0d1117"/><rect x="374" y="112" width="11" height="11" rx="2" fill="#0d1117"/><rect x="374" y="126" width="11" height="11" rx="2" fill="#0d1117"/><rect x="374" y="140" width="11" height="11" rx="2" fill="#0d1117"/><rect x="374" y="154" width="11" height="11" rx="2" fill="#0d1117"/><rect x="388" y="70" width="11" height="11" rx="2" fill="#0d1117"/><rect x="388" y="84" width="11" height="11" rx="2" fill="#0d1117"/><rect x="388" y="98" width="11" height="11" rx="2" fill="#0d1117"/><rect x="388" y="112" width="11" height="11" rx="2" fill="#0d1117"/><rect x="388" y="126" width="11" height="11" rx="2" fill="#0d1117"/><rect x="388" y="140" width="11" height="11" rx="2" fill="#0e4429"/><rect x="388" y="154" width="11" height="11" rx="2" fill="#0d1117"/><rect x="402" y="70" width="11" height="11" rx="2" fill="#0d1117"/><rect x="402" y="84" width="11" height="11" rx="2" fill="#0d1117"/><rect x="402" y="98" width="11" height="11" rx="2" fill="#0d1117"/><rect x="402" y="112" width="11" height="11" rx="2" fill="#0d1117"/><rect x="402" y="126" width="11" height="11" rx="2" fill="#0d1117"/><rect x="402" y="140" width="11" height="11" rx="2" fill="#0d1117"/><rect x="402" y="154" width="11" height="11" rx="2" fill="#0d1117"/><rect x="416" y="70" width="11" height="11" rx="2" fill="#0d1117"/><rect x="416" y="84" width="11" height="11" rx="2" fill="#0d1117"/><rect x="416" y="98" width="11" height="11" rx="2" fill="#0d1117"/><rect x="416" y="112" width="11" height="11" rx="2" fill="#0d1117"/><rect x="416" y="126" width="11" height="11" rx="2" fill="#0d1117"/><rect x="416" y="140" width="11" height="11" rx="2" fill="#0d1117"/><rect x="416" y="154" width="11" height="11" rx="2" fill="#0d1117"/><rect x="430" y="70" width="11" height="11" rx="2" fill="#0d1117"/><rect x="430" y="84" width="11" height="11" rx="2" fill="#0d1117"/><rect x="430" y="98" width="11" height="11" rx="2" fill="#0d1117"/><rect x="430" y="112" width="11" height="11" rx="2" fill="#0d1117"/><rect x="430" y="126" width="11" height="11" rx="2" fill="#0d1117"/><rect x="430" y="140" width="11" height="11" rx="2" fill="#006d32"/><rect x="430" y="154" width="11" height="11" rx="2" fill="#0d1117"/><rect x="444" y="70" width="11" height="11" rx="2" fill="#0d1117"/><rect x="444" y="84" width="11" height="11" rx="2" fill="#0d1117"/><rect x="444" y="98" width="11" height="11" rx="2" fill="#0d1117"/><rect x="444" y="112" width="11" height="11" rx="2" fill="#0d1117"/><rect x="444" y="126" width="11" height="11" rx="2" fill="#0d1117"/><rect x="444" y="140" width="11" height="11" rx="2" fill="#0d1117"/><rect x="444" y="154" width="11" height="11" rx="2" fill="#0d1117"/><rect x="458" y="70" width="11" height="11" rx="2" fill="#0d1117"/><rect x="458" y="84" width="11" height="11" rx="2" fill="#0d1117"/><rect x="458" y="98" width="11" height="11" rx="2" fill="#0e4429"/><rect x="458" y="112" width="11" height="11" rx="2" fill="#0d1117"/><rect x="458" y="126" width="11" height="11" rx="2" fill="#0d1117"/><rect x="458" y="140" width="11" height="11" rx="2" fill="#0d1117"/><rect x="458" y="154" width="11" height="11" rx="2" fill="#0d1117"/><rect x="472" y="70" width="11" height="11" rx="2" fill="#0d1117"/><rect x="472" y="84" width="11" height="11" rx="2" fill="#0d1117"/><rect x="472" y="98" width="11" height="11" rx="2" fill="#0d1117"/><rect x="472" y="112" width="11" height="11" rx="2" fill="#0d1117"/><rect x="472" y="126" width="11" height="11" rx="2" fill="#0e4429"/><rect x="472" y="140" width="11" height="11" rx="2" fill="#0d1117"/><rect x="472" y="154" width="11" height="11" rx="2" fill="#0d1117"/><rect x="486" y="70" width="11" height="11" rx="2" fill="#0d1117"/><rect x="486" y="84" width="11" height="11" rx="2" fill="#0d1117"/><rect x="486" y="98" width="11" height="11" rx="2" fill="#0d1117"/><rect x="486" y="112" width="11" height="11" rx="2" fill="#0e4429"/><rect x="486" y="126" width="11" height="11" rx="2" fill="#0d1117"/><rect x="486" y="140" width="11" height="11" rx="2" fill="#0d1117"/><rect x="486" y="154" width="11" height="11" rx="2" fill="#0d1117"/><rect x="500" y="70" width="11" height="11" rx="2" fill="#0d1117"/><rect x="500" y="84" width="11" height="11" rx="2" fill="#0d1117"/><rect x="500" y="98" width="11" height="11" rx="2" fill="#0e4429"/><rect x="500" y="112" width="11" height="11" rx="2" fill="#0d1117"/><rect x="500" y="126" width="11" height="11" rx="2" fill="#0d1117"/><rect x="500" y="140" width="11" height="11" rx="2" fill="#0d1117"/><rect x="500" y="154" width="11" height="11" rx="2" fill="#0d1117"/><rect x="514" y="70" width="11" height="11" rx="2" fill="#006d32"/><rect x="514" y="84" width="11" height="11" rx="2" fill="#0d1117"/><rect x="514" y="98" width="11" height="11" rx="2" fill="#0d1117"/><rect x="514" y="112" width="11" height="11" rx="2" fill="#0d1117"/><rect x="514" y="126" width="11" height="11" rx="2" fill="#0d1117"/><rect x="514" y="140" width="11" height="11" rx="2" fill="#0d1117"/><rect x="514" y="154" width="11" height="11" rx="2" fill="#0d1117"/><rect x="528" y="70" width="11" height="11" rx="2" fill="#0d1117"/><rect x="528" y="84" width="11" height="11" rx="2" fill="#0d1117"/><rect x="528" y="98" width="11" height="11" rx="2" fill="#0d1117"/><rect x="528" y="112" width="11" height="11" rx="2" fill="#0d1117"/><rect x="528" y="126" width="11" height="11" rx="2" fill="#0d1117"/><rect x="528" y="140" width="11" height="11" rx="2" fill="#0d1117"/><rect x="528" y="154" width="11" height="11" rx="2" fill="#0d1117"/><rect x="542" y="70" width="11" height="11" rx="2" fill="#0e4429"/><rect x="542" y="84" width="11" height="11" rx="2" fill="#0e4429"/><rect x="542" y="98" width="11" height="11" rx="2" fill="#0d1117"/><rect x="542" y="112" width="11" height="11" rx="2" fill="#0d1117"/><rect x="542" y="126" width="11" height="11" rx="2" fill="#0d1117"/><rect x="542" y="140" width="11" height="11" rx="2" fill="#0d1117"/><rect x="542" y="154" width="11" height="11" rx="2" fill="#0d1117"/><rect x="556" y="70" width="11" height="11" rx="2" fill="#0d1117"/><rect x="556" y="84" width="11" height="11" rx="2" fill="#0d1117"/><rect x="556" y="98" width="11" height="11" rx="2" fill="#0d1117"/><rect x="556" y="112" width="11" height="11" rx="2" fill="#0d1117"/><rect x="556" y="126" width="11" height="11" rx="2" fill="#0d1117"/><rect x="556" y="140" width="11" height="11" rx="2" fill="#0d1117"/><rect x="556" y="154" width="11" height="11" rx="2" fill="#0d1117"/><rect x="570" y="70" width="11" height="11" rx="2" fill="#0d1117"/><rect x="570" y="84" width="11" height="11" rx="2" fill="#0d1117"/><rect x="570" y="98" width="11" height="11" rx="2" fill="#0d1117"/><rect x="570" y="112" width="11" height="11" rx="2" fill="#0d1117"/><rect x="570" y="126" width="11" height="11" rx="2" fill="#0e4429"/><rect x="570" y="140" width="11" height="11" rx="2" fill="#0d1117"/><rect x="570" y="154" width="11" height="11" rx="2" fill="#0d1117"/><rect x="584" y="70" width="11" height="11" rx="2" fill="#0d1117"/><rect x="584" y="84" width="11" height="11" rx="2" fill="#0d1117"/><rect x="584" y="98" width="11" height="11" rx="2" fill="#0e4429"/><rect x="584" y="112" width="11" height="11" rx="2" fill="#0d1117"/><rect x="584" y="126" width="11" height="11" rx="2" fill="#0d1117"/><rect x="584" y="140" width="11" height="11" rx="2" fill="#0d1117"/><rect x="584" y="154" width="11" height="11" rx="2" fill="#0d1117"/><rect x="598" y="70" width="11" height="11" rx="2" fill="#0d1117"/><rect x="598" y="84" width="11" height="11" rx="2" fill="#0d1117"/><rect x="598" y="98" width="11" height="11" rx="2" fill="#0d1117"/><rect x="598" y="112" width="11" height="11" rx="2" fill="#0d1117"/><rect x="598" y="126" width="11" height="11" rx="2" fill="#0d1117"/><rect x="598" y="140" width="11" height="11" rx="2" fill="#0d1117"/><rect x="598" y="154" width="11" height="11" rx="2" fill="#0d1117"/><rect x="612" y="70" width="11" height="11" rx="2" fill="#0e4429"/><rect x="612" y="84" width="11" height="11" rx="2" fill="#0d1117"/><rect x="612" y="98" width="11" height="11" rx="2" fill="#0e4429"/><rect x="612" y="112" width="11" height="11" rx="2" fill="#0d1117"/><rect x="612" y="126" width="11" height="11" rx="2" fill="#0d1117"/><rect x="612" y="140" width="11" height="11" rx="2" fill="#0d1117"/><rect x="612" y="154" width="11" height="11" rx="2" fill="#0d1117"/><rect x="626" y="70" width="11" height="11" rx="2" fill="#0d1117"/><rect x="626" y="84" width="11" height="11" rx="2" fill="#0e4429"/><rect x="626" y="98" width="11" height="11" rx="2" fill="#0d1117"/><rect x="626" y="112" width="11" height="11" rx="2" fill="#0d1117"/><rect x="626" y="126" width="11" height="11" rx="2" fill="#0d1117"/><rect x="626" y="140" width="11" height="11" rx="2" fill="#0d1117"/><rect x="626" y="154" width="11" height="11" rx="2" fill="#0e4429"/><rect x="640" y="70" width="11" height="11" rx="2" fill="#0d1117"/><rect x="640" y="84" width="11" height="11" rx="2" fill="#0d1117"/><rect x="640" y="98" width="11" height="11" rx="2" fill="#0e4429"/><rect x="640" y="112" width="11" height="11" rx="2" fill="#0e4429"/><rect x="640" y="126" width="11" height="11" rx="2" fill="#0d1117"/><rect x="640" y="140" width="11" height="11" rx="2" fill="#0d1117"/><rect x="640" y="154" width="11" height="11" rx="2" fill="#0d1117"/><rect x="654" y="70" width="11" height="11" rx="2" fill="#0d1117"/><rect x="654" y="84" width="11" height="11" rx="2" fill="#0d1117"/><rect x="654" y="98" width="11" height="11" rx="2" fill="#0e4429"/><rect x="654" y="112" width="11" height="11" rx="2" fill="#0d1117"/><rect x="654" y="126" width="11" height="11" rx="2" fill="#0d1117"/><rect x="654" y="140" width="11" height="11" rx="2" fill="#0d1117"/><rect x="654" y="154" width="11" height="11" rx="2" fill="#0e4429"/><rect x="668" y="70" width="11" height="11" rx="2" fill="#0e4429"/><rect x="668" y="84" width="11" height="11" rx="2" fill="#0e4429"/><rect x="668" y="98" width="11" height="11" rx="2" fill="#0d1117"/><rect x="668" y="112" width="11" height="11" rx="2" fill="#0e4429"/><rect x="668" y="126" width="11" height="11" rx="2" fill="#0d1117"/><rect x="668" y="140" width="11" height="11" rx="2" fill="#0d1117"/><rect x="668" y="154" width="11" height="11" rx="2" fill="#0e4429"/><rect x="682" y="70" width="11" height="11" rx="2" fill="#0e4429"/><rect x="682" y="84" width="11" height="11" rx="2" fill="#0d1117"/><rect x="682" y="98" width="11" height="11" rx="2" fill="#0d1117"/><rect x="682" y="112" width="11" height="11" rx="2" fill="#0d1117"/><rect x="682" y="126" width="11" height="11" rx="2" fill="#0d1117"/><rect x="682" y="140" width="11" height="11" rx="2" fill="#0e4429"/><rect x="682" y="154" width="11" height="11" rx="2" fill="#0d1117"/><rect x="696" y="70" width="11" height="11" rx="2" fill="#0d1117"/><rect x="696" y="84" width="11" height="11" rx="2" fill="#0d1117"/><rect x="696" y="98" width="11" height="11" rx="2" fill="#0d1117"/><rect x="696" y="112" width="11" height="11" rx="2" fill="#0d1117"/><rect x="696" y="126" width="11" height="11" rx="2" fill="#0e4429"/><rect x="696" y="140" width="11" height="11" rx="2" fill="#0d1117"/><rect x="696" y="154" width="11" height="11" rx="2" fill="#0d1117"/><rect x="710" y="70" width="11" height="11" rx="2" fill="#0e4429"/><rect x="710" y="84" width="11" height="11" rx="2" fill="#0d1117"/><rect x="710" y="98" width="11" height="11" rx="2" fill="#0d1117"/><rect x="710" y="112" width="11" height="11" rx="2" fill="#0d1117"/><rect x="710" y="126" width="11" height="11" rx="2" fill="#006d32"/><rect x="710" y="140" width="11" height="11" rx="2" fill="#0e4429"/><rect x="710" y="154" width="11" height="11" rx="2" fill="#0d1117"/><rect x="724" y="70" width="11" height="11" rx="2" fill="#0e4429"/><rect x="724" y="84" width="11" height="11" rx="2" fill="#0d1117"/><rect x="724" y="98" width="11" height="11" rx="2" fill="#0d1117"/><rect x="724" y="112" width="11" height="11" rx="2" fill="#0e4429"/><rect x="724" y="126" width="11" height="11" rx="2" fill="#0e4429"/><rect x="724" y="140" width="11" height="11" rx="2" fill="#0e4429"/><rect x="724" y="154" width="11" height="11" rx="2" fill="#0d1117"/><rect x="738" y="70" width="11" height="11" rx="2" fill="#006d32"/><rect x="738" y="84" width="11" height="11" rx="2" fill="#26a641"/><rect x="738" y="98" width="11" height="11" rx="2" fill="#006d32"/><rect x="738" y="112" width="11" height="11" rx="2" fill="#39d353"/><rect x="738" y="126" width="11" height="11" rx="2" fill="#0d1117"/><rect x="738" y="140" width="11" height="11" rx="2" fill="#0e4429"/><rect x="738" y="154" width="11" height="11" rx="2" fill="#0e4429"/><text x="24" y="168" fill="#8b949e" font-family="Segoe UI,Arial,sans-serif" font-size="11">Less</text><rect x="58" y="164" width="11" height="11" rx="2" fill="#0d1117"/><rect x="58" y="164" width="11" height="11" rx="2" fill="#0e4429"/><rect x="58" y="164" width="11" height="11" rx="2" fill="#006d32"/><rect x="58" y="164" width="11" height="11" rx="2" fill="#26a641"/><rect x="58" y="164" width="11" height="11" rx="2" fill="#39d353"/><text x="120" y="173" fill="#8b949e" font-family="Segoe UI,Arial,sans-serif" font-size="11">More</text>
</svg>